<svg width="35" height="30" viewBox="0 0 35 30" fill="none" xmlns="http://www.w3.org/2000/svg"><g clip-path="url(#a)"><path d="m23.3 10.881-1.447-3.217-3.188-1.447 3.188-1.446 1.446-3.159 1.447 3.159 3.217 1.446-3.218 1.447zm0 16.708-1.447-3.159-3.188-1.476 3.188-1.446 1.446-3.188 1.447 3.188 3.217 1.446-3.218 1.476zm-10.834-3.72-2.923-6.376-6.376-2.892 6.376-2.893 2.923-6.376 2.922 6.376 6.376 2.893-6.376 2.892zm0-5.49 1.21-2.598 2.627-1.18-2.627-1.21-1.21-2.598-1.21 2.597-2.628 1.21 2.627 1.181z" fill="#675496"/></g><defs><clipPath id="a"><path fill="#fff" d="M.806.77h28.338v28.338H.806z"/></clipPath></defs></svg>