<svg width="359" height="170" viewBox="0 0 359 170" fill="none" xmlns="http://www.w3.org/2000/svg"><g filter="url(#a)"><rect x="4" width="351" height="162" rx="9" fill="#fff"/></g><circle cx="35" cy="42" r="23" fill="#E8DEF8"/><g clip-path="url(#b)"><path d="m42 39-1.25-2.75L38 35l2.75-1.25L42 31l1.25 2.75L46 35l-2.75 1.25zm0 14-1.25-2.75L38 49l2.75-1.25L42 45l1.25 2.75L46 49l-2.75 1.25zm-9-3-2.5-5.5L25 42l5.5-2.5L33 34l2.5 5.5L41 42l-5.5 2.5zm0-4.85L34 43l2.15-1L34 41l-1-2.15L32 41l-2.15 1L32 43z" fill="#675496"/></g><circle cx="326" cy="112" r="23" fill="#6750A4"/><g clip-path="url(#c)"><path d="M326 112q-1.65 0-2.825-1.175T322 108t1.175-2.825T326 104t2.825 1.175T330 108t-1.175 2.825T326 112m-8 8v-2.8q0-.85.425-1.55.45-.725 1.175-1.1 1.55-.775 3.15-1.15 1.6-.4 3.25-.4t3.25.4q1.6.375 3.15 1.15.725.375 1.15 1.1.45.7.45 1.55v2.8zm2-2h12v-.8q0-.275-.15-.5a.9.9 0 0 0-.35-.35q-1.35-.675-2.725-1A11.2 11.2 0 0 0 326 115q-1.4 0-2.775.35-1.375.325-2.725 1-.225.125-.375.35-.125.225-.125.5zm6-8q.825 0 1.4-.575.6-.6.6-1.425t-.6-1.4q-.575-.6-1.4-.6t-1.425.6q-.575.575-.575 1.4t.575 1.425q.6.575 1.425.575" fill="#E2E0F9"/></g><rect x="66" y="16" width="283" height="52" rx="9" fill="#E8DEF8"/><rect x="72" y="24" width="266" height="7" rx="3.5" fill="#6750A4"/><rect x="18" y="94" width="266" height="7" rx="3.5" fill="#6750A4"/><rect x="72" y="38" width="266" height="7" rx="3.5" fill="#6750A4"/><rect x="18" y="108" width="266" height="7" rx="3.5" fill="#6750A4"/><rect x="72" y="52" width="108" height="7" rx="3.5" fill="#6750A4"/><rect x="176" y="122" width="108" height="7" rx="3.5" fill="#6750A4"/><defs><clipPath id="b"><path fill="#fff" d="M23 30h24v24H23z"/></clipPath><clipPath id="c"><path fill="#fff" d="M314 100h24v24h-24z"/></clipPath><filter id="a" x="0" y="0" width="359" height="170" filterUnits="userSpaceOnUse" color-interpolation-filters="sRGB"><feFlood flood-opacity="0" result="BackgroundImageFix"/><feColorMatrix in="SourceAlpha" values="0 0 0 0 0 0 0 0 0 0 0 0 0 0 0 0 0 0 127 0" result="hardAlpha"/><feOffset dy="4"/><feGaussianBlur stdDeviation="2"/><feComposite in2="hardAlpha" operator="out"/><feColorMatrix values="0 0 0 0 0 0 0 0 0 0 0 0 0 0 0 0 0 0 0.25 0"/><feBlend in2="BackgroundImageFix" result="effect1_dropShadow_7330_1211"/><feBlend in="SourceGraphic" in2="effect1_dropShadow_7330_1211" result="shape"/></filter></defs></svg>