<svg width="294" height="276" viewBox="0 0 294 276" fill="none" xmlns="http://www.w3.org/2000/svg"><g filter="url(#a)"><rect x="4" width="286" height="268" rx="9" fill="#fff"/></g><rect x="33" y="62" width="199" height="16" rx="8" fill="#6750A4"/><rect x="33.5" y="41.5" width="139" height="16" rx="8" stroke="#D0BCFF"/><rect x="33.5" y="124.5" width="115" height="16" rx="8" stroke="#D0BCFF"/><rect x="33.5" y="165.5" width="234" height="15" rx="7.5" stroke="#D0BCFF"/><rect x="33.5" y="206.5" width="234" height="16" rx="8" stroke="#D0BCFF"/><rect x="33.5" y="145.5" width="234" height="15" rx="7.5" stroke="#D0BCFF"/><rect x="33.5" y="227.5" width="234" height="15" rx="7.5" stroke="#D0BCFF"/><rect x="33.5" y="82.5" width="176" height="16" rx="8" stroke="#D0BCFF"/><rect x="33" y="20" width="89" height="17" rx="8.5" fill="#6750A4"/><rect x="33" y="103" width="89" height="17" rx="8.5" fill="#6750A4"/><rect x="33" y="185" width="89" height="17" rx="8.5" fill="#6750A4"/><defs><filter id="a" x="0" y="0" width="294" height="276" filterUnits="userSpaceOnUse" color-interpolation-filters="sRGB"><feFlood flood-opacity="0" result="BackgroundImageFix"/><feColorMatrix in="SourceAlpha" values="0 0 0 0 0 0 0 0 0 0 0 0 0 0 0 0 0 0 127 0" result="hardAlpha"/><feOffset dy="4"/><feGaussianBlur stdDeviation="2"/><feComposite in2="hardAlpha" operator="out"/><feColorMatrix values="0 0 0 0 0 0 0 0 0 0 0 0 0 0 0 0 0 0 0.25 0"/><feBlend in2="BackgroundImageFix" result="effect1_dropShadow_7330_1195"/><feBlend in="SourceGraphic" in2="effect1_dropShadow_7330_1195" result="shape"/></filter></defs></svg>